<?xml version="1.0" standalone="no"?>
<!DOCTYPE svg PUBLIC "-//W3C//DTD SVG 1.1//EN" "http://www.w3.org/Graphics/SVG/1.1/DTD/svg11.dtd" >
<svg>
<metadata>
Created by FontForge 20090622 at Thu Sep  7 03:48:11 2017
 By ffonts
Dennis Ferrand
</metadata>
<defs>
<font id="MKXTitle" horiz-adv-x="1014" >
  <font-face 
    font-family="MKX Title"
    font-weight="400"
    font-stretch="normal"
    units-per-em="2048"
    panose-1="2 0 5 0 0 0 0 0 0 0"
    ascent="1638"
    descent="-410"
    x-height="1207"
    cap-height="1412"
    bbox="-342 -418 2048 1836"
    underline-thickness="150"
    underline-position="-142"
    unicode-range="U+0020-U+F002"
  />
<missing-glyph horiz-adv-x="1024" 
d="M100 0v1434h824v-1434h-824zM150 50h724v1334h-724v-1334zM325 1148q31 28 58 43q53 30 112 30q92 0 148 -47.5t56 -127.5q0 -49 -23 -98.5t-87 -129.5q-63 -80 -99 -132t-36 -99q0 -38 24 -133h-32q-35 97 -35 148q0 76 81.5 218t81.5 217q0 57 -33 90t-91 33
q-38 0 -69 -17q-26 -15 -56 -40v45zM389 334l57 58q11 10 20 10q10 0 22 -11l56 -60q9 -11 9 -20q0 -11 -10 -22l-56 -62q-14 -14 -21 -14q-11 0 -20 10l-61 71q-7 9 -7 18q0 10 11 22z" />
    <glyph glyph-name=".notdef" horiz-adv-x="1024" 
d="M100 0v1434h824v-1434h-824zM150 50h724v1334h-724v-1334zM325 1148q31 28 58 43q53 30 112 30q92 0 148 -47.5t56 -127.5q0 -49 -23 -98.5t-87 -129.5q-63 -80 -99 -132t-36 -99q0 -38 24 -133h-32q-35 97 -35 148q0 76 81.5 218t81.5 217q0 57 -33 90t-91 33
q-38 0 -69 -17q-26 -15 -56 -40v45zM389 334l57 58q11 10 20 10q10 0 22 -11l56 -60q9 -11 9 -20q0 -11 -10 -22l-56 -62q-14 -14 -21 -14q-11 0 -20 10l-61 71q-7 9 -7 18q0 10 11 22z" />
    <glyph glyph-name=".null" horiz-adv-x="0" 
 />
    <glyph glyph-name="nonmarkingreturn" horiz-adv-x="508" 
 />
    <glyph glyph-name="space" unicode=" " horiz-adv-x="508" 
 />
    <glyph glyph-name="space" unicode="&#xa0;" horiz-adv-x="508" 
 />
    <glyph glyph-name="exclam" unicode="!" horiz-adv-x="394" 
d="M77 1412h206q18 -2 18 -14v-1044q0 -14 -18 -14h-206q-17 0 -17 14v1044q3 14 17 14zM171 276h11q144 0 144 -166q-47 -110 -122 -110h-44q-101 0 -121 154q39 122 132 122z" />
    <glyph glyph-name="quotedbl" unicode="&#x22;" horiz-adv-x="528" 
d="M299 1567h170h18v-218q0 -102 -93 -169v9q46 57 46 151l-19 20h-122h-19v207h19zM59 1567h170h18v-218q0 -102 -93 -169v9q46 57 46 151l-19 20h-122h-19v207h19z" />
    <glyph glyph-name="numbersign" unicode="#" horiz-adv-x="1933" 
d="M948 1836h38q409 0 710 -357q194 -257 194 -566q0 -442 -376 -741q-255 -178 -513 -178h-15l-19 -4l-23 4h-15q-332 0 -627 277q-262 289 -262 642q0 427 353 726q261 197 555 197zM895 1760q19 -24 19 -57l-4 -4h-4q-26 50 -61 50q-60 0 -72 -76q0 -76 69 -87
q40 0 76 -35q13 20 30 27q20 -38 95 -38h72q57 0 57 -76v-4l42 8q69 0 110 -103h-30q-38 -5 -38 -15v-11q0 -38 83 -84q59 -14 141 -53h19q14 0 34 15h8q39 0 72 -65l-4 -3h-38v-4q27 -27 27 -38q-20 0 -27 -61l-15 -8v-15q0 -20 -19 -30h-8q0 45 -57 45l-19 -3
q51 -27 118 -243q35 -69 114 -69h4q78 0 87 65v4q0 29 -30 60h7q42 -26 42 -64q0 -78 -110 -88h-4q-47 4 -80 19v-3q40 -76 95 -76v-8h-34q-87 0 -133 228q-40 95 -49 95q-47 -38 -99 -38l-133 30q-136 164 -281 194q-29 0 -84 -46l-41 -15h-27q-125 15 -125 110l-4 46
q-34 -24 -34 -57q11 -56 26 -72q-21 -39 -23 -76q0 -122 137 -171q91 -23 209 -23h23l178 12q153 0 293 -137q106 -131 106 -240v-34q0 -51 -34 -133q255 255 255 612q0 432 -392 714q-219 133 -478 133zM655 1707q31 -25 31 -46v-3q-20 19 -34 19h-12q-42 -9 -42 -42
q0 -50 164 -68q0 -6 34 -8q-65 64 -65 125l12 50h-4zM116 940v-57q0 -240 152 -452q132 -164 372 -164q112 0 145 80l7 27q0 47 -129 76q-14 12 -49 22q-42 -72 -73 -72v4l4 23v19q-15 42 -15 64v16l-34 22q-37 0 -42 -79q-12 -42 -80 -42q-40 0 -68 34v8l46 -12h11
q33 0 38 50v26l-8 42v19l8 61q-41 28 -103 186q-55 -38 -98 -38h-12q-30 0 -49 23v4h15q65 0 87 144q0 203 31 266q39 57 53 57q-38 35 -38 64v12l8 7q0 -9 30 -19q35 0 110 111q67 57 232 57h11v3q-125 40 -125 122h-4q-77 -33 -228 -182q-205 -261 -205 -532zM956 1358
l155 -31h8l45 4v4q-11 0 -110 72l-30 8h-12q-56 -5 -56 -57zM959 1190q90 -23 327 -197q49 -27 91 -27h23q-19 24 -19 46v11q0 13 11 27q-42 0 -216 175q-56 26 -80 26q-69 0 -137 -61zM1328 1171v-7q13 -23 38 -23q26 27 72 27q-21 38 -76 38q-34 0 -34 -35zM1411 1031
l-7 -34q0 -16 15 -31q43 15 46 27l-46 38h-8z" />
    <glyph glyph-name="dollar" unicode="$" 
d="M577 1552v-102q68 -8 141 -35q10 -6 19 -6q25 0 41 45h50l103 -282h-49q-60 134 -168 179q-74 30 -137 39v-540q241 -93 322.5 -183t81.5 -264q0 -197 -119.5 -300t-284.5 -120v-239h-73v237q-188 3 -266 38q-10 6 -19 6q-25 0 -41 -45h-50v331h49q50 -183 152.5 -226
t174.5 -43v635q-214 67 -299 153q-92 91 -92 249q0 166 125 271q105 88 266 102v100h73zM577 655v-610q125 17 211.5 96t86.5 219q0 116 -69 183q-62 59 -229 112zM504 873v520q-119 -5 -199 -72q-86 -73 -86 -182q0 -98 55 -153q52 -54 230 -113z" />
    <glyph glyph-name="percent" unicode="%" horiz-adv-x="1610" 
d="M449 1459q98 0 190.5 -49t144.5 -139.5t52 -190.5q0 -99 -50.5 -188.5t-143 -140t-193.5 -50.5q-100 0 -192.5 50.5t-143.5 140t-51 188.5q0 100 52 190.5t144.5 139.5t190.5 49zM206 1066q13 -92 55.5 -173.5t106.5 -124.5q57 -40 114 -40q7 0 13 1q63 3 115 53t73 136
q13 54 13 111q0 32 -4 65q-12 93 -56 175.5t-107 124.5q-58 38 -115 38h-11q-61 -3 -113 -52t-73 -135q-15 -58 -15 -117q0 -31 4 -62zM297 -29l940 1461h84l-938 -1461h-86zM1161 738q97 0 190 -49.5t145 -140t52 -189.5q0 -100 -50.5 -189.5t-143 -139.5t-193.5 -50
t-193 50t-143 139.5t-51 189.5q0 99 52 189.5t144.5 140t190.5 49.5zM918 344q13 -92 55.5 -173.5t106.5 -124.5q59 -39 116 -39h11q63 3 115 53t73 136q13 54 13 111q0 32 -4 65q-12 93 -56 175.5t-107 124.5q-58 38 -115 38h-11q-61 -3 -113 -52t-73 -135
q-15 -58 -15 -117q0 -31 4 -62z" />
    <glyph glyph-name="ampersand" unicode="&#x26;" horiz-adv-x="1683" 
d="M1051 196l-554 683q-118 0 -179.5 -86t-61.5 -204q0 -91 35.5 -181.5t101.5 -164.5q72 -83 165 -127t194 -44q88 0 169 33.5t130 90.5zM1394 0q-56 0 -139 25t-167 132q-67 -74 -175 -123.5t-241 -49.5q-229 0 -374.5 150.5t-145.5 385.5q0 161 76 266.5t225 151.5
q-42 61 -62.5 116t-20.5 111q0 105 77 197t182 92q68 0 142 -39q9 -6 18 -6q23 0 38 45h46l96 -281h-46q-55 133 -155 178q-85 37 -141 37q-65 0 -106 -45.5t-41 -117.5q0 -131 102 -267l531 -670q98 146 121 244q17 78 17 130q0 97 -62 97h-90v50h443v-50h-90
q-95 0 -145 -227q-31 -132 -155 -292q109 -136 248 -136h16q143 17 192 128l49 -1l-103 -231h-160z" />
    <glyph glyph-name="quotesingle" unicode="'" horiz-adv-x="275" 
d="M49 1567h170h18v-218q0 -102 -93 -169v9q46 57 46 151l-19 20h-122h-19v207h19z" />
    <glyph glyph-name="parenleft" unicode="(" horiz-adv-x="758" 
d="M252 601q2 277 99.5 530t268.5 442h80q-172 -242 -230 -438q-57 -193 -57 -523v-22q0 -330 57 -522q58 -196 230 -438h-80q-171 189 -268.5 441.5t-99.5 529.5z" />
    <glyph glyph-name="parenright" unicode=")" horiz-adv-x="758" 
d="M138 -370h-80q172 242 230 438q57 192 57 522v22q0 330 -57 523q-58 196 -230 438h80q171 -189 268.5 -442t99.5 -530q-2 -277 -99.5 -529.5t-268.5 -441.5z" />
    <glyph glyph-name="asterisk" unicode="*" horiz-adv-x="1024" 
d="M498 1294q-4 71 -37 130q-37 66 -37 84q0 32 23.5 51.5t62.5 19.5q37 0 61.5 -18t24.5 -47q0 -21 -36 -89q-33 -61 -37 -130q66 25 113 75q51 55 69 61q11 3 21 3q18 0 35 -10q26 -17 38 -53q6 -19 6 -36q0 -15 -4 -28q-10 -30 -38 -38q-6 -2 -19 -2q-25 0 -76 9
q-28 5 -55 5q-41 0 -81 -11q44 -55 105 -83q68 -32 79 -47q13 -18 13 -38q0 -9 -2 -17q-8 -30 -39 -53q-29 -22 -59 -22q-1 0 -1 1q-31 0 -48 23q-12 17 -22 94q-10 67 -47 125q-38 -58 -46 -124q-9 -75 -20 -90q-19 -25 -49 -27h-5q-28 0 -57 21q-30 21 -39 51q-4 10 -4 20
q0 17 11 32q13 17 83 51q61 29 105 82q-41 11 -80 11q-27 0 -53 -5q-54 -11 -78 -11q-9 0 -14 2q-30 9 -41 38q-6 13 -6 29q0 17 6 36q11 35 36 53q17 12 34 12q9 0 18 -3q20 -6 74 -62q47 -49 112 -75z" />
    <glyph glyph-name="plus" unicode="+" 
d="M437 647h-350v140h350v369l1 1h139v-370h349l1 -1v-139h-350v-370h-140v370z" />
    <glyph glyph-name="comma" unicode="," horiz-adv-x="275" 
d="M49 197h170h18v-218q0 -102 -93 -169v9q46 57 46 151l-19 20h-122h-19v207h19z" />
    <glyph glyph-name="hyphen" unicode="-" horiz-adv-x="670" 
d="M156 409q-40 0 -40 28v83q0 29 41 29h356q41 0 41 -29v-83q0 -28 -40 -28h-358z" />
    <glyph glyph-name="hyphen" unicode="&#xad;" horiz-adv-x="670" 
d="M156 409q-40 0 -40 28v83q0 29 41 29h356q41 0 41 -29v-83q0 -28 -40 -28h-358z" />
    <glyph glyph-name="period" unicode="." horiz-adv-x="387" 
d="M171 276h11q144 0 144 -166q-47 -110 -122 -110h-44q-101 0 -121 154q39 122 132 122z" />
    <glyph glyph-name="slash" unicode="/" horiz-adv-x="569" 
d="M93 -50h-80l541 1484h80z" />
    <glyph glyph-name="zero" unicode="0" 
d="M167 1412q6 0 6 -6l41 6h573q116 0 156 -69q17 -64 17 -191v-1025q-21 -127 -110 -127h-700q-93 0 -110 133v1152q0 103 127 127zM318 1221l6 -12v-619q0 -57 -6 -139q6 -10 6 -23q19 0 144 371q20 29 133 347l41 92v6q0 18 -64 18h-162q-82 0 -98 -41zM671 932
q-52 -130 -70 -203q-9 0 -29 -81q-13 0 -29 -92q-86 -157 -86 -226q-8 0 -52 -122q-12 -1 -12 -11l6 -12l-18 -29q2 -11 12 -11h214q52 0 75 46v729q0 12 -11 12z" />
    <glyph glyph-name="one" unicode="1" horiz-adv-x="565" 
d="M403 1479l9 -19v-1348q0 -53 93 -103v-9h-465v9q93 50 93 93v1098l-9 46h-19l-65 -9v9q2 12 363 233z" />
    <glyph glyph-name="two" unicode="2" 
d="M190 1412h598q140 0 140 -215v-150q0 -217 -121 -290q-394 -351 -496 -476v-113q3 -18 19 -18h178q347 0 476 289h19q-79 -439 -103 -439h-841q-19 0 -19 19v262q0 121 383 420q234 209 234 262q10 35 10 84v131q0 75 -75 75h-187q-68 0 -84 -47v-121q0 -35 -262 -122
l-10 19v262q0 168 141 168z" />
    <glyph glyph-name="three" unicode="3" horiz-adv-x="966" 
d="M167 1412h562q167 -36 167 -122v-237q0 -32 6 -81l-6 -11q6 -41 6 -70q0 -123 -52 -168v-5q52 -48 52 -145q0 -51 -6 -116q6 -107 6 -191q0 -208 -40 -208q-41 -58 -151 -58h-486q-179 0 -179 122v283q2 12 11 12h238q11 -2 11 -12v-6q0 -237 35 -237q19 -12 35 -12h208
q40 25 40 35v376q0 47 -69 47h-116q-38 0 -133 81q-9 0 -75 58l12 5h277q104 6 104 41v428q-17 41 -46 41h-185q-62 0 -87 -35q6 -78 6 -116v-29q0 -11 -12 -11h-86q-24 0 -64 -6q-11 6 -17 6q-31 -6 -58 -6q-30 0 -35 17v191q0 6 6 6q0 6 -6 6q0 82 87 115z" />
    <glyph glyph-name="four" unicode="4" 
d="M618 1412h303v-9q-47 -55 -47 -95v-834q3 -19 19 -19h85q0 -39 -104 -218v-133q0 -40 47 -95v-9h-360v9q48 55 48 95v133q0 19 -19 19h-531l-19 9q553 1147 578 1147zM372 455h218q19 0 19 19v464q-146 -246 -237 -483z" />
    <glyph glyph-name="five" unicode="5" 
d="M51 1412h867q13 0 17 -65q0 -48 -6 -107q6 -128 6 -259v-6q0 -10 -11 -10h-22q-214 83 -242 102v167q0 28 -16 32h-270q-52 0 -59 -53v-335q0 -40 75 -53h426q113 -60 113 -114h6q5 -135 5 -215v-108q0 -98 -5 -275q-38 -113 -151 -113h-555q-189 0 -189 172v232
q2 11 11 11h345q10 -2 10 -11q-53 -13 -86 -43q0 -31 -5 -86q0 -129 43 -129h232q70 0 70 59v399q0 75 -76 75h-350q-194 0 -194 156v566q2 11 11 11z" />
    <glyph glyph-name="six" unicode="6" horiz-adv-x="989" 
d="M777 1412q111 0 141 -92q6 -10 6 -31v-264l6 -61q-12 -6 -18 -6q-236 92 -258 110v74q0 117 -49 117q-103 6 -160 6h-31q-104 0 -104 -68v-6q0 -6 6 -6q-6 -61 -6 -92v-166q0 -98 19 -98h294q218 0 258 -37q49 -24 49 -258v-43q0 -57 -6 -270q6 -67 6 -117
q-33 -104 -147 -104h-583q-129 0 -154 92v1068q0 50 -6 117q0 102 117 135h620zM310 657v-338q0 -172 62 -172h12q109 6 184 6h49q37 19 37 56v399q0 73 -111 73h-190q-33 0 -43 -24z" />
    <glyph glyph-name="seven" unicode="7" 
d="M137 1412h892q11 -2 11 -11q-108 -59 -108 -120q-92 -214 -132 -361q-9 -7 -85 -228q-29 -44 -75 -206l-63 -154l-85 -252v-23q26 -40 68 -40v-6q-11 -1 -11 -11l-57 6h-378v5q0 6 75 40q28 50 274 698q0 27 172 492q-18 5 -18 11q-145 -6 -211 -6h-92q-186 0 -257 -177
l-11 -6l-6 12v28q11 10 40 155q39 154 57 154z" />
    <glyph glyph-name="eight" unicode="8" horiz-adv-x="966" 
d="M173 1412h602q56 0 110 -64q17 -23 23 -115l-6 -12q0 -14 6 -87q-6 -99 -6 -116l6 -40q0 -6 -6 -17q6 -41 6 -70q0 -123 -52 -168v-5q52 -48 52 -145q0 -51 -6 -116q6 -107 6 -191q0 -214 -40 -214q-32 -52 -134 -52h-520q-130 0 -168 104q-6 148 -6 174q0 72 6 179
q-6 67 -6 127q0 81 52 134v5q-52 41 -52 186q0 14 6 46l-6 23q0 5 6 46q-6 86 -6 116l6 81q0 6 -6 6q0 143 87 173q41 12 46 12zM318 1204v-411q20 -35 52 -35h208q32 0 52 35v411q0 58 -92 58h-110q-104 0 -104 -41q-6 0 -6 -17zM318 561v-341q0 -64 52 -64h208q52 0 52 64
v341q0 34 -52 47q-10 0 -104 -6q-10 0 -104 6q-52 -13 -52 -47z" />
    <glyph glyph-name="nine" unicode="9" horiz-adv-x="989" 
d="M163 1412h645q123 -31 123 -123v-1166q-31 -123 -123 -123h-645q-123 31 -123 123v370l9 19q231 -86 256 -114v-190q0 -66 67 -66h227q66 0 66 66v313q0 85 -246 133q-379 107 -379 227v408q31 123 123 123zM305 1204v-285q0 -84 247 -132q0 -12 104 -38l9 19v445
q-24 57 -75 57h-218q-67 0 -67 -66z" />
    <glyph glyph-name="colon" unicode=":" horiz-adv-x="282" 
d="M49 1018h170h19v-208h-19h-170h-19v208h19zM49 198h170h19v-208h-19h-170h-19v208h19z" />
    <glyph glyph-name="semicolon" unicode=";" horiz-adv-x="282" 
d="M49 207h170h18v-218q0 -102 -93 -169v9q46 57 46 151l-19 20h-122h-19v207h19zM49 1018h170h19v-208h-19h-170h-19v208h19z" />
    <glyph glyph-name="semicolon" unicode="&#x37e;" horiz-adv-x="282" 
d="M49 207h170h18v-218q0 -102 -93 -169v9q46 57 46 151l-19 20h-122h-19v207h19zM49 1018h170h19v-208h-19h-170h-19v208h19z" />
    <glyph glyph-name="less" unicode="&#x3c;" 
d="M927 1074l-625 -359l625 -355v-167l-840 481v83l840 484v-167z" />
    <glyph glyph-name="equal" unicode="=" 
d="M87 631h840v-140h-840v140zM87 943h840v-140h-840v140z" />
    <glyph glyph-name="greater" unicode="&#x3e;" 
d="M87 1241l840 -484v-83l-840 -481v167l625 355l-625 359v167z" />
    <glyph glyph-name="question" unicode="?" horiz-adv-x="959" 
d="M183 1412h574q143 -14 143 -110v-442q0 -85 -353 -297q-22 -37 -22 -67v-88q0 -22 -22 -22h-242q-22 0 -22 22v110q0 152 319 320q67 50 67 100v275q-18 45 -78 45h-165q-66 -7 -66 -34v-121q0 -16 77 -77v-11h-353v309q40 88 143 88zM371 276h11q143 0 143 -166
q-47 -110 -121 -110h-44q-102 0 -121 154q38 122 132 122z" />
    <glyph glyph-name="at" unicode="@" horiz-adv-x="1922" 
d="M934 1830h28q451 0 756 -404q156 -254 156 -512q0 -420 -340 -716q-259 -208 -592 -208q-395 0 -696 328q-216 273 -216 596q0 404 328 700q265 216 576 216zM882 1750q12 -20 12 -40v-4q-28 36 -52 36h-16q-68 -12 -68 -68q0 -65 156 -120l20 -16h4q16 60 44 60l-12 -32
v-4q0 -92 216 -144q80 0 80 -56q0 -25 -40 -48q81 -78 196 -116q140 -15 140 -40q8 0 8 -20v-4q0 -29 -20 -32v-4q16 -23 16 -40q-16 -60 -32 -60q-19 28 -68 28h-4v-4q41 -39 76 -140q19 -144 124 -144h12q59 0 76 80v16l-8 28q20 -12 20 -52q-19 -96 -88 -96h-28
q-23 0 -64 20v-8q25 -60 92 -84h4v-8h-4q-119 0 -168 244l-36 68h-4q-49 -35 -96 -40l-108 24h-16l-28 -8q-64 116 -156 156q-51 28 -92 28h-4q-50 0 -132 -56l-40 -8q-82 0 -120 92l-8 44l8 40q-24 -25 -24 -56v-32q0 -29 28 -64v-4q-20 -22 -20 -48v-16q0 -102 200 -160
q59 -11 252 -16q197 -39 256 -104q152 -122 152 -320q0 -61 -28 -136q308 261 308 656q0 351 -276 616q-244 220 -580 220h-12zM638 1694l12 -16v-4l-32 8q-38 0 -44 -56q14 -64 136 -64l12 -8v4q-24 45 -24 84v12q0 27 24 64v4zM110 922v-24q0 -233 128 -432
q197 -223 372 -260l20 -4q80 0 92 96q0 43 -136 112q-28 36 -28 72q-41 -80 -144 -80h-8v8q55 0 76 92v16q0 90 -108 152q-96 80 -96 128l8 36l-20 -4h-28q-41 0 -76 36h4l32 -4q96 22 96 132v8l-8 176q0 60 44 96q-44 34 -44 68v8h4q29 -32 64 -32q58 0 148 172
q33 40 72 40q-44 46 -44 84l8 32q-88 -42 -232 -192q-196 -243 -196 -532zM938 1370q0 -36 168 -36l16 -4v12l-152 64h-4q-28 -8 -28 -36zM966 1182q93 0 264 -180q93 -52 140 -52q72 11 72 28q-45 64 -80 64q0 -18 -48 -52h-4v4q20 23 20 40v16q0 23 -52 52
q-127 136 -204 136q-59 0 -108 -56zM1414 1154l-8 -12v-8l12 -12h56q-33 29 -60 32z" />
    <glyph glyph-name="A" unicode="A" horiz-adv-x="1189" 
d="M410 1407h362v-10q-48 -54 -48 -95v-9q323 -1142 380 -1255l48 -29v-19h-342v10l47 76q-66 266 -95 266h-352q-32 -24 -85 -266l47 -76v-10h-342v19q71 0 181 456q256 816 256 856l-57 76v10zM581 950l-133 -456l10 -10h257l19 19q-131 447 -153 447z" />
    <glyph glyph-name="B" unicode="B" horiz-adv-x="959" 
d="M30 1410h762q124 -31 124 -124v-391q0 -45 -66 -114q66 -47 66 -105v-562q-31 -124 -124 -124h-762v10q48 54 48 95v1210q0 41 -48 95v10zM346 810h18h209q52 0 76 57v343q-24 57 -76 57h-209h-18v-457zM344 676v-543h20h209q52 0 76 57v429q-24 57 -76 57h-209h-20z" />
    <glyph glyph-name="C" unicode="C" horiz-adv-x="1011" 
d="M164 1412h649q124 -31 124 -124v-344l38 -57h-9q-284 99 -296 124v201q-24 57 -76 57h-220q-67 0 -67 -67v-1002q0 -67 67 -67h229q67 0 67 67v267l19 19h277v-9l-29 -38v-325q-31 -124 -124 -124h-649q-124 31 -124 124v1174q31 124 124 124z" />
    <glyph glyph-name="D" unicode="D" horiz-adv-x="1026" 
d="M30 1412h821q124 -31 124 -124v-1174q-31 -124 -124 -124h-821v10q48 54 48 95v1212q0 41 -48 95v10zM345 1269v-1136h19h277q67 0 67 67v1012q-25 57 -77 57h-267h-19z" />
    <glyph glyph-name="E" unicode="E" horiz-adv-x="1041" 
d="M30 1413h783q38 -33 143 -306q-168 172 -353 172h-239l-19 -19v-496l19 -20h239q41 0 96 48h9v-229h-9q-55 48 -96 48h-239l-19 -19v-449l19 -19h268q185 0 353 172v-19l-143 -287h-812v10q48 54 48 95v1213q0 41 -48 95v10z" />
    <glyph glyph-name="F" unicode="F" horiz-adv-x="1018" 
d="M40 1412h783q38 -33 143 -305q-168 171 -353 171h-239l-19 -19v-496l19 -19h239q40 0 95 48h10v-229h-10q-55 47 -95 47h-239l-19 -19v-496q0 -41 48 -95v-10h-363v10q48 54 48 95v1212q0 41 -48 95v10z" />
    <glyph glyph-name="G" unicode="G" horiz-adv-x="1011" 
d="M154 1414h650q124 -31 124 -124v-344l39 -58h-10q-284 99 -296 125v200q-24 58 -77 58h-220q-66 0 -66 -67v-1004q0 -67 66 -67h230q67 0 67 67v287q0 41 -48 96v9h363v-9q-48 -55 -48 -96v-392q0 -40 48 -95v-10h-822q-124 31 -124 124v1176q31 124 124 124z" />
    <glyph glyph-name="H" unicode="H" horiz-adv-x="1063" 
d="M30 1412h363v-10q-48 -55 -48 -95v-544l19 -19h324l19 19v544q0 40 -48 95v10h363v-10q-47 -55 -47 -95v-1212q0 -40 47 -95v-10h-363v10q48 55 48 95v497l-19 19h-324l-19 -19v-497q0 -40 48 -95v-10h-363v10q48 55 48 95v1212q0 40 -48 95v10z" />
    <glyph glyph-name="I" unicode="I" horiz-adv-x="439" 
d="M30 1412h363v-10q-48 -55 -48 -95v-1212q0 -40 48 -95v-10h-363v10q48 55 48 95v1212q0 40 -48 95v10z" />
    <glyph glyph-name="J" unicode="J" horiz-adv-x="1055" 
d="M640 1410h362v-10q-48 -54 -48 -95v-1191q-31 -124 -123 -124h-649q-123 31 -123 124v324l-29 38v10h276l19 -19v-267q0 -67 67 -67h229q67 0 67 67v1105q0 41 -48 95v10z" />
    <glyph glyph-name="K" unicode="K" horiz-adv-x="1167" 
d="M40 1412h360v-9q-47 -55 -47 -95v-512h9q351 489 351 540v29l-29 38v9h408v-19q-108 0 -427 -540q-47 -38 -47 -85q46 -56 436 -692q68 -57 104 -57v-19h-199q-174 0 -350 351q-87 146 -133 199h-10q-113 -131 -113 -180v-266q0 -40 47 -95v-9h-360v9q47 55 47 95v1204
q0 40 -47 95v9z" />
    <glyph glyph-name="L" unicode="L" horiz-adv-x="1026" 
d="M30 1412h363v-10q-48 -54 -48 -95v-1183h19h267q185 0 353 171v-19l-143 -286h-811v10q48 54 48 95v1212q0 41 -48 95v10z" />
    <glyph glyph-name="M" unicode="M" horiz-adv-x="1204" 
d="M30 1412h302q26 0 176 -592l78 -259h9q36 40 157 536q85 287 107 315h303v-10q-50 -54 -50 -95v-1214q0 -41 50 -95v-10h-372v10q50 54 50 95v631h-20l-214 -784h-20l-215 784h-19v-631q0 -41 48 -95v-10h-370v10q48 54 48 95v1214q0 41 -48 95v10z" />
    <glyph glyph-name="N" unicode="N" horiz-adv-x="1122" 
d="M30 1410h295q48 -29 410 -791h19v686q0 41 -47 95v10h362v-10q-48 -54 -48 -95v-1210q0 -41 48 -95v-10h-296q-47 29 -409 791h-20v-686q0 -41 48 -95v-10h-362v10q48 54 48 95v1210q0 41 -48 95v10z" />
    <glyph glyph-name="O" unicode="O" horiz-adv-x="974" 
d="M154 1410h648q124 -31 124 -124v-1172q-31 -124 -124 -124h-648q-124 31 -124 124v1172q31 124 124 124zM297 1200v-1000q0 -67 67 -67h228q67 0 67 67v1010q-24 57 -76 57h-219q-67 0 -67 -67z" />
    <glyph glyph-name="P" unicode="P" horiz-adv-x="959" 
d="M30 1410h762q124 -31 124 -124v-581q-31 -124 -124 -124h-428h-20v-486q0 -41 48 -95v-10h-362v10q48 54 48 95v1210q0 41 -48 95v10zM344 1267v-553h20h209q52 0 76 57v439q-24 57 -76 57h-209h-20z" />
    <glyph glyph-name="Q" unicode="Q" horiz-adv-x="974" 
d="M154 1411h648q124 -31 124 -123v-1174q0 -28 -47 -105q18 -80 172 -200h19v-19h-182q-144 0 -258 200h-476q-124 31 -124 124v1174q31 123 124 123zM298 1201v-1001q0 -67 66 -67h172v19q-134 199 -134 229h239l19 20v810q-25 58 -77 58h-219q-66 0 -66 -68z" />
    <glyph glyph-name="R" unicode="R" horiz-adv-x="1204" 
d="M40 1412h777q114 -23 114 -114v-597q0 -97 -142 -123v-9q284 -455 312 -484q73 -66 105 -66v-19h-218q-162 0 -294 275q-113 190 -209 313h-104q-19 -3 -19 -19v-455q0 -43 57 -105v-9h-379v9q57 62 57 105v1184q0 43 -57 105v9zM362 1251v-512q3 -19 19 -19h199
q55 0 85 67v417q-30 66 -85 66h-199q-19 -3 -19 -19z" />
    <glyph glyph-name="S" unicode="S" horiz-adv-x="1063" 
d="M202 1410h648q124 -31 124 -124v-343l38 -57h-9q-284 98 -296 124v200q-24 57 -76 57h-219q-67 0 -67 -67v-286q0 -83 276 -143q353 -109 353 -181v-476q-31 -124 -124 -124h-648q-124 31 -124 124v343l-38 57h10q283 -98 295 -124v-190q0 -67 67 -67h228q67 0 67 67v314
q0 85 -248 134q-381 107 -381 228v410q31 124 124 124z" />
    <glyph glyph-name="T" unicode="T" horiz-adv-x="1115" 
d="M87 1408h914q26 0 66 -257h-19q-51 114 -200 114h-152l-19 -19v-1151q0 -41 48 -95v-10h-362v10q48 54 48 95v1151l-19 19h-172q-118 0 -171 -114h-19q38 257 57 257z" />
    <glyph glyph-name="U" unicode="U" horiz-adv-x="1078" 
d="M30 1412h363v-10q-48 -54 -48 -95v-1107q0 -67 67 -67h229q67 0 67 67v1107q0 41 -48 95v10h363v-10q-48 -54 -48 -95v-1193q-31 -124 -124 -124h-649q-124 31 -124 124v1193q0 41 -48 95v10z" />
    <glyph glyph-name="V" unicode="V" horiz-adv-x="1070" 
d="M30 1412h313v-8q-17 -21 -17 -34q195 -669 212 -677h8l195 685q-17 0 -17 17v17h304v-17q-67 0 -177 -457q-203 -675 -313 -998h-9q-28 0 -152 457q-279 913 -305 973q-27 25 -42 25v17z" />
    <glyph glyph-name="W" unicode="W" horiz-adv-x="1554" 
d="M30 1412h315v-9q-17 -20 -17 -34q196 -672 213 -681h9q187 689 204 724h17q37 -38 145 -511q66 -213 76 -213h9l196 690q-17 0 -17 17v17h306v-17q-68 0 -178 -460q-205 -679 -316 -1005h-8q-27 0 -111 324q-107 340 -119 340h-9q-93 -361 -204 -664h-8q-28 0 -154 460
q-281 919 -306 979q-28 26 -43 26v17z" />
    <glyph glyph-name="X" unicode="X" horiz-adv-x="1174" 
d="M30 1414h356v-10l-19 -48q0 -45 211 -413h10q212 356 212 423v10l-20 28v10h356v-19q-74 -2 -336 -549q-18 0 -87 -154q348 -672 395 -673l28 -10v-19h-375v10l29 38v19q0 38 -202 395h-10q-202 -356 -202 -414l20 -48h-366v19q83 0 289 433l134 241q-8 57 -365 683
l-58 29v19z" />
    <glyph glyph-name="Y" unicode="Y" horiz-adv-x="1323" 
d="M30 1412h468v-19q-58 0 -58 -57l201 -392v-9h9l201 391v29q-10 38 -58 38v19h468v-19q-139 0 -296 -382l-181 -305h-10v-611q0 -41 48 -95v-10h-363v10q48 54 48 95v573q-341 715 -420 715l-57 10v19z" />
    <glyph glyph-name="Z" unicode="Z" horiz-adv-x="1033" 
d="M956 1412q28 -9 28 -19q-617 -1225 -617 -1253h262q181 0 346 169v-19q-109 -244 -140 -281h-150q-215 0 -617 -9q-18 9 -28 9q0 17 617 1263h-215q-181 0 -346 -169v19q110 244 140 281h75q232 0 645 9z" />
    <glyph glyph-name="bracketleft" unicode="[" horiz-adv-x="758" 
 />
    <glyph glyph-name="backslash" unicode="\" horiz-adv-x="569" 
 />
    <glyph glyph-name="bracketright" unicode="]" horiz-adv-x="758" 
 />
    <glyph glyph-name="asciicircum" unicode="^" 
 />
    <glyph glyph-name="underscore" unicode="_" horiz-adv-x="1024" 
d="M0 -100h1024v-60h-1024v60z" />
    <glyph glyph-name="grave" unicode="`" horiz-adv-x="1024" 
d="M673 1079h-69l-330 202q-31 20 -46.5 40t-15.5 42q0 31 20.5 51t53.5 20q20 0 40.5 -12t55.5 -47z" />
    <glyph glyph-name="a" unicode="a" horiz-adv-x="1048" 
d="M357 1210h312v-9q-41 -46 -41 -81v-8q278 -983 327 -1081l41 -25v-16h-294v9l40 65q-57 229 -82 229h-303q-27 -21 -73 -229l40 -65v-9h-294v16q61 0 156 393q220 703 220 737l-49 65v9zM504 817l-114 -393l8 -9h222l16 17q-113 385 -132 385z" />
    <glyph glyph-name="b" unicode="b" horiz-adv-x="847" 
d="M30 1212h656q107 -27 107 -107v-336q0 -39 -57 -98q57 -41 57 -91v-483q-27 -107 -107 -107h-656v9q41 46 41 81v1042q0 35 -41 81v9zM302 696h15h180q45 0 66 49v295q-21 49 -66 49h-180h-15v-393zM300 580v-467h17h180q45 0 66 49v369q-21 49 -66 49h-180h-17z" />
    <glyph glyph-name="c" unicode="c" horiz-adv-x="892" 
d="M147 1212h557q107 -27 107 -107v-295l32 -49h-7q-244 85 -255 106v173q-20 49 -65 49h-189q-58 0 -58 -57v-862q0 -57 58 -57h197q57 0 57 57v230l17 16h238v-7l-25 -33v-279q-27 -107 -107 -107h-557q-107 27 -107 107v1008q27 107 107 107z" />
    <glyph glyph-name="d" unicode="d" horiz-adv-x="899" 
d="M30 1212h706q106 -27 106 -107v-1008q-27 -107 -106 -107h-706v9q41 46 41 81v1042q0 35 -41 81v9zM301 1089v-976h16h238q58 0 58 57v870q-22 49 -67 49h-229h-16z" />
    <glyph glyph-name="e" unicode="e" horiz-adv-x="907" 
d="M30 1212h672q33 -28 123 -263q-144 148 -303 148h-205l-16 -16v-426l16 -18h205q35 0 83 42h7v-197h-7q-48 41 -83 41h-205l-16 -16v-386l16 -16h230q159 0 303 148v-17l-123 -246h-697v9q41 46 41 81v1042q0 35 -41 81v9z" />
    <glyph glyph-name="f" unicode="f" horiz-adv-x="892" 
d="M40 1212h673q33 -28 123 -262q-145 147 -304 147h-205l-16 -16v-427l16 -16h205q35 0 82 41h9v-197h-9q-47 41 -82 41h-205l-16 -17v-426q0 -35 41 -81v-9h-312v9q41 46 41 81v1042q0 35 -41 81v9z" />
    <glyph glyph-name="g" unicode="g" horiz-adv-x="899" 
d="M136 1212h558q107 -27 107 -106v-296l33 -49h-8q-244 85 -255 107v172q-20 49 -66 49h-188q-57 0 -57 -57v-862q0 -57 57 -57h197q57 0 57 57v246q0 36 -41 83v8h312v-8q-41 -47 -41 -83v-336q0 -34 41 -81v-9h-706q-106 27 -106 106v1010q27 106 106 106z" />
    <glyph glyph-name="h" unicode="h" horiz-adv-x="944" 
d="M30 1212h312v-9q-41 -47 -41 -81v-468l16 -16h278l17 16v468q0 34 -41 81v9h311v-9q-40 -47 -40 -81v-1042q0 -34 40 -81v-9h-311v9q41 47 41 81v427l-17 17h-278l-16 -17v-427q0 -34 41 -81v-9h-312v9q41 47 41 81v1042q0 34 -41 81v9z" />
    <glyph glyph-name="i" unicode="i" horiz-adv-x="394" 
d="M30 1212h312v-8q-41 -48 -41 -82v-1042q0 -34 41 -81v-9h-312v9q41 47 41 81v1042q0 34 -41 82v8z" />
    <glyph glyph-name="j" unicode="j" horiz-adv-x="929" 
d="M555 1212h312v-8q-41 -47 -41 -82v-1025q-27 -107 -107 -107h-558q-106 27 -106 107v278l-25 33v8h238l16 -16v-230q0 -57 58 -57h196q58 0 58 57v952q0 35 -41 82v8z" />
    <glyph glyph-name="k" unicode="k" horiz-adv-x="1026" 
d="M40 1212h309v-8q-41 -47 -41 -81v-440h9q301 420 301 464v24l-25 33v8h350v-16q-93 0 -366 -464q-41 -32 -41 -73q39 -48 374 -594q58 -49 90 -49v-16h-171q-150 0 -301 301q-74 125 -114 171h-8q-98 -112 -98 -155v-228q0 -34 41 -81v-8h-309v8q41 47 41 81v1034
q0 34 -41 81v8z" />
    <glyph glyph-name="l" unicode="l" horiz-adv-x="899" 
d="M30 1212h312v-9q-41 -46 -41 -81v-1017h16h229q159 0 304 147v-16l-123 -246h-697v9q41 46 41 81v1042q0 35 -41 81v9z" />
    <glyph glyph-name="m" unicode="m" horiz-adv-x="1070" 
d="M30 1212h261q22 0 152 -512l67 -223h8q31 34 136 463q73 248 92 272h262v-9q-43 -46 -43 -82v-1049q0 -35 43 -82v-9h-321v9q43 47 43 82v545h-17l-185 -677h-18l-185 677h-17v-545q0 -35 42 -82v-9h-320v9q41 47 41 82v1049q0 36 -41 82v9z" />
    <glyph glyph-name="n" unicode="n" horiz-adv-x="974" 
d="M30 1209h254q41 -25 351 -679h17v589q0 35 -41 82v8h311v-8q-41 -47 -41 -82v-1039q0 -35 41 -82v-8h-254q-41 25 -352 679h-16v-589q0 -35 41 -82v-8h-311v8q41 47 41 82v1039q0 35 -41 82v8z" />
    <glyph glyph-name="o" unicode="o" horiz-adv-x="862" 
d="M137 1215h559q107 -27 107 -107v-1011q-27 -107 -107 -107h-559q-107 27 -107 107v1011q27 107 107 107zM260 1034v-863q0 -58 58 -58h197q58 0 58 58v872q-21 49 -66 49h-189q-58 0 -58 -58z" />
    <glyph glyph-name="p" unicode="p" horiz-adv-x="847" 
d="M30 1212h656q106 -27 106 -107v-500q-26 -106 -106 -106h-369h-17v-419q0 -35 42 -81v-9h-312v9q41 46 41 81v1042q0 35 -41 81v9zM300 1089v-476h17h180q45 0 66 49v378q-21 49 -66 49h-180h-17z" />
    <glyph glyph-name="q" unicode="q" horiz-adv-x="870" 
d="M139 1212h568q109 -27 109 -108v-1030q0 -24 -41 -92q16 -70 151 -175h16v-17h-159q-127 0 -227 175h-417q-109 28 -109 109v1030q27 108 109 108zM265 1028v-878q0 -59 58 -59h151v17q-118 174 -118 200h210l17 18v711q-22 50 -68 50h-192q-58 0 -58 -59z" />
    <glyph glyph-name="r" unicode="r" horiz-adv-x="1048" 
d="M40 1212h667q98 -19 98 -98v-512q0 -83 -122 -106v-8q244 -390 268 -415q62 -57 90 -57v-16h-188q-139 0 -252 236q-96 163 -179 268h-89q-16 -2 -16 -16v-390q0 -37 48 -90v-8h-325v8q49 53 49 90v1016q0 37 -49 90v8zM317 1074v-440q2 -16 16 -16h171q47 0 73 57v358
q-26 57 -73 57h-171q-16 -3 -16 -16z" />
    <glyph glyph-name="s" unicode="s" horiz-adv-x="929" 
d="M179 1212h558q107 -27 107 -107v-295l33 -49h-9q-244 85 -254 107v172q-21 49 -66 49h-188q-58 0 -58 -57v-246q0 -72 238 -123q304 -94 304 -156v-410q-27 -107 -107 -107h-558q-106 27 -106 107v295l-33 49h8q244 -85 254 -107v-164q0 -57 58 -57h197q57 0 57 57v271
q0 73 -213 115q-328 92 -328 197v352q27 107 106 107z" />
    <glyph glyph-name="t" unicode="t" horiz-adv-x="974" 
d="M79 1212h788q22 0 57 -221h-17q-44 98 -172 98h-131l-16 -17v-992q0 -35 41 -81v-9h-312v9q41 46 41 81v992l-16 17h-148q-102 0 -148 -98h-16q33 221 49 221z" />
    <glyph glyph-name="u" unicode="u" horiz-adv-x="937" 
d="M30 1214h313v-8q-42 -47 -42 -82v-953q0 -58 58 -58h197q58 0 58 58v953q0 35 -42 82v8h313v-8q-41 -47 -41 -82v-1027q-27 -107 -107 -107h-559q-107 27 -107 107v1027q0 35 -41 82v8z" />
    <glyph glyph-name="v" unicode="v" horiz-adv-x="944" 
d="M30 1211h270v-7q-14 -18 -14 -29q168 -577 182 -585h8l168 592q-15 0 -15 15v14h263v-14q-58 0 -153 -395q-176 -583 -271 -862h-7q-24 0 -131 395q-242 788 -263 840q-24 22 -37 22v14z" />
    <glyph glyph-name="w" unicode="w" horiz-adv-x="1360" 
d="M30 1208h272v-7q-15 -18 -15 -29q169 -581 184 -588h7q162 594 177 624h14q32 -32 125 -440q58 -184 66 -184h8l169 595q-15 0 -15 15v14h264v-14q-58 0 -154 -397q-176 -586 -272 -867h-7q-24 0 -96 279q-93 294 -102 294h-8q-81 -311 -176 -573h-8q-24 0 -132 397
q-242 793 -264 845q-24 22 -37 22v14z" />
    <glyph glyph-name="x" unicode="x" horiz-adv-x="1041" 
d="M30 1214h306v-8l-16 -41q0 -39 181 -356h9q182 307 182 364v9l-17 24v8h306v-16q-64 -2 -289 -472q-15 0 -75 -132q300 -578 340 -579l24 -9v-16h-322v9l24 32v17q0 32 -173 339h-9q-173 -306 -173 -356l17 -41h-315v16q71 0 248 373l116 207q-7 49 -314 587l-50 25v16z
" />
    <glyph glyph-name="y" unicode="y" horiz-adv-x="1137" 
d="M30 1209h401v-17q-50 0 -50 -48l173 -336v-8h7l173 335v25q-9 32 -50 32v17h401v-17q-119 0 -254 -327l-155 -261h-8v-524q0 -35 41 -81v-9h-311v9q41 46 41 81v491q-292 613 -360 613l-49 8v17z" />
    <glyph glyph-name="z" unicode="z" horiz-adv-x="907" 
d="M823 1207q24 -8 24 -16q-527 -1047 -527 -1071h224q154 0 295 144v-16q-93 -209 -120 -240h-127q-184 0 -528 -8q-16 8 -24 8q0 15 528 1079h-184q-155 0 -296 -144v16q94 209 120 240h64q198 0 551 8z" />
    <glyph glyph-name="braceleft" unicode="{" 
d="M240 698q172 5 223 71t51 133v468q0 74 77 141.5t185 67.5h108v-50h-90q-61 0 -107 -33.5t-47 -91.5v-500q0 -83 -60.5 -158.5t-142.5 -76.5v-2q82 -1 143 -76t61 -158l-1 -500q1 -58 47 -91.5t107 -33.5h90v-50h-108q-108 0 -184.5 67.5t-77.5 141.5v468q0 66 -51 132
t-223 71v60z" />
    <glyph glyph-name="bar" unicode="|" 
d="M427 1577h160v-1995h-160v1995z" />
    <glyph glyph-name="braceright" unicode="}" 
d="M774 638q-172 -5 -223 -71t-51 -132v-468q-1 -74 -77.5 -141.5t-184.5 -67.5h-108v50h90q61 0 107 33.5t47 91.5l-1 500q0 83 61 158t144 76v2q-83 1 -143.5 76.5t-60.5 158.5v500q-1 58 -47 91.5t-107 33.5h-90v50h108q108 0 185 -67.5t77 -141.5v-468q0 -67 51 -133
t223 -71v-60z" />
    <glyph glyph-name="asciitilde" unicode="~" 
d="M923 878v-156q-63 -72 -122 -97.5t-116 -25.5q-60 0 -177.5 48.5t-176.5 48.5q-51 0 -107.5 -28t-129.5 -112v156q64 73 123 99t114 26q64 0 181.5 -49.5t172.5 -49.5q52 0 108.5 28t129.5 112z" />
    <glyph glyph-name="exclamdown" unicode="&#xa1;" horiz-adv-x="672" 
 />
    <glyph glyph-name="cent" unicode="&#xa2;" horiz-adv-x="1139" 
 />
    <glyph glyph-name="sterling" unicode="&#xa3;" 
d="M748 1347q-72 31 -160 31h-2q-100 0 -190 -101q-84 -93 -84 -241q0 -15 1 -30q0 -135 53 -273h360v-60h-334q14 -30 31 -60q35 -63 35 -138q0 -161 -162 -375h402q130 0 189 132l49 -1l-103 -231h-719l1 50q187 238 187 418q0 77 -34 143q-17 32 -31 62h-161v60h135
q-58 143 -58 253q0 226 123.5 347t306.5 121h4q75 0 185.5 -14t110.5 -34v-161h-58q-5 61 -77 102z" />
    <glyph glyph-name="currency" unicode="&#xa4;" 
d="M350 560q41 -40 99 -57q29 -8 58 -8t58 8q58 17 99 57q40 41 57 99q9 29 9 58t-9 58q-17 58 -57 99q-41 40 -100 57q-29 8 -58 8t-58 -9q-58 -17 -98 -56q-39 -40 -56 -98q-10 -30 -10 -60q0 -28 9 -56q16 -59 57 -100zM240 903l-118 118l80 81l118 -118q44 30 99 46
q44 14 89 14q41 0 83 -12q57 -17 102 -48l118 118l80 -81l-117 -117q31 -46 48 -102q12 -42 12 -85q0 -42 -12 -85q-17 -56 -48 -102l117 -117l-80 -81l-118 118q-45 -32 -101 -48q-42 -12 -85 -12q-42 0 -85 12q-57 16 -102 48l-118 -118l-80 81l118 117q-32 46 -48 103
q-12 42 -12 84q0 44 13 87q16 55 47 99z" />
    <glyph glyph-name="yen" unicode="&#xa5;" horiz-adv-x="1262" 
d="M547 225l-2 242q0 19 -1.5 35t-4.5 32l-484 1q-14 0 -21 6.5t-7 19.5t6.5 19t21.5 6h467l-121 172h-344q-17 0 -23.5 5.5t-6.5 18.5q0 14 6 19.5t22 5.5h307q-43 57 -108 155q-131 197 -227 197q-7 0 -13 5.5t-6 11.5q0 19 10.5 27.5t32.5 8.5q27 0 123 -8t164 -8h57h31
q33 0 41 -6.5t8 -26.5q0 -8 -15 -14t-38 -6q-6 0 -18.5 2t-18.5 2q-24 0 -37.5 -9.5t-13.5 -25.5q0 -18 16.5 -52t46.5 -77l158 -221q13 -19 33 -53q41 -70 71 -70q9 0 16.5 5t14.5 15l277 396q8 12 13 26.5t5 24.5q0 18 -10 27t-37 14q-15 2 -41 4q-47 3 -47 25
q0 15 8 22.5t25 7.5q3 0 15 -1q56 -7 108 -7h139q30 0 65 1t37 1q11 0 18.5 -4.5t8.5 -11.5q0 -28 -38 -34q-18 -3 -27 -5q-63 -15 -147 -117l-12 -15l-169 -206h323q15 0 24 -6t9 -17q0 -15 -6 -20.5t-23 -5.5h-366q-46 -57 -96.5 -112.5t-52.5 -59.5h511q18 0 25.5 -5.5
t7.5 -17.5q0 -14 -7 -21t-22 -7h-530q0 -11 -1 -30.5t-1 -29.5l2 -215q0 -114 5.5 -150t20.5 -44q30 -17 107.5 -19t77.5 -31q0 -12 -10 -20t-25 -8q-2 0 -35.5 4t-64.5 4q-91 0 -208.5 -4t-142.5 -4q-31 0 -40 4t-9 16t8 18.5t37 12.5q9 2 25 5q74 16 92 32q17 13 24 47
t7 102z" />
    <glyph glyph-name="brokenbar" unicode="&#xa6;" 
d="M427 371h160v-789h-160v789zM427 1578h160v-789h-160v789z" />
    <glyph glyph-name="section" unicode="&#xa7;" 
d="M545 321q56 16 97 53q73 65 73 166q0 5 -1 10h-2q-1 14 -4 27q-22 61 -113 127q-59 29 -126 29q-78 0 -125 -44.5t-47 -117.5q0 -123 248 -250zM466 -346q113 6 185 69q72 64 72 165q0 125 -316 276q-123 64 -175.5 137t-52.5 177q0 148 89 237q67 65 170 82l-40 19
q-123 64 -175.5 137t-52.5 177q0 148 89 237q82 79 216 86q8 1 17 1h3q66 0 163 -16.5t97 -41.5v-194h-51q-5 81 -80 132q-70 47 -149 51h-15q-78 0 -125 -44.5t-47 -117.5q0 -132 287 -269q149 -67 204.5 -143.5t55.5 -187.5q0 -171 -101 -282q-47 -39 -99 -64
q108 -56 154 -118q55 -77 55 -187q0 -171 -101 -283q-124 -102 -277 -105v1q-6 -1 -13 -1h-3q-66 0 -163 16.5t-97 41.5v194h51q5 -81 80 -132q68 -45 145 -50z" />
    <glyph glyph-name="dieresis" unicode="&#xa8;" horiz-adv-x="1024" 
d="M223 1289l71 72q13 12 25 12q11 0 27 -14l69 -73q10 -14 10 -25q0 -13 -12 -27l-69 -75q-17 -17 -25 -17q-14 0 -25 12l-76 86q-9 12 -9 23q0 13 14 26zM588 1289l71 72q13 12 25 12q11 0 27 -13l69 -74q10 -14 10 -25q0 -13 -12 -26l-69 -76q-17 -17 -25 -17
q-14 0 -25 12l-76 87q-9 11 -9 22q0 13 14 26z" />
    <glyph glyph-name="copyright" unicode="&#xa9;" horiz-adv-x="1674" 
d="M840 1456q145 0 280 -56.5t239 -160.5q102 -101 158.5 -238t56.5 -283q0 -147 -56.5 -282t-162.5 -240q-105 -105 -239 -159.5t-283 -54.5q-146 0 -278 55.5t-238 160.5q-106 104 -161.5 237.5t-55.5 282.5q0 148 55.5 283t159.5 238q102 104 238.5 160.5t286.5 56.5z
M357 1197q-95 -96 -146 -219.5t-51 -259.5q0 -137 51 -259t148 -219q98 -96 219 -147t256 -51q137 0 259.5 50.5t219.5 145.5q97 98 149 221.5t52 258.5q0 134 -52 259.5t-145 219.5q-96 96 -220 147.5t-258 51.5q-137 0 -262 -51.5t-220 -147.5zM865 223q-142 0 -264 68
t-186 185t-64 243t65.5 244t187.5 184.5t254 66.5q38 0 75 -6.5t76 -20.5q5 -1 9 -1q19 0 26 30h42l72 -198h-44q-52 94 -131 124q-72 26 -147 26h-15q-86 -8 -166.5 -71t-121.5 -177q-33 -90 -33 -184q0 -25 2 -50q11 -121 69.5 -224t149.5 -152q72 -40 166 -42
q124 0 194 56t70 126h53v-100q0 -46 -96.5 -86.5t-242.5 -40.5z" />
    <glyph glyph-name="ordfeminine" unicode="&#xaa;" horiz-adv-x="648" 
 />
    <glyph glyph-name="guillemotleft" unicode="&#xab;" horiz-adv-x="944" 
d="M174 479l342 303h14v-37l-205 -266l205 -266v-37h-14zM487 479l342 303h14v-37l-205 -266l205 -266v-37h-14z" />
    <glyph glyph-name="logicalnot" unicode="&#xac;" 
d="M87 767h840v-491l-1 -1h-98v392h-741v100z" />
    <glyph glyph-name="registered" unicode="&#xae;" horiz-adv-x="1674" 
d="M751 1099v-374l3 -8q23 -56 56 -81q29 -22 56 -22h6q31 4 61.5 38.5t46.5 97.5q13 50 13 103q0 13 -1 27q-4 67 -28 124.5t-56.5 76t-63.5 18.5h-93zM984 576l82 -116q100 -141 150 -141h34v-50h-346v50h45q30 0 30 22q0 29 -69 114l-75 102q-42 0 -84 42v-159
q0 -121 36 -121h53v-50h-316v50h43q37 0 37 121v538q0 121 -37 121h-43v70h356q64 -1 125 -42q60 -41 92.5 -114t32.5 -152q0 -78 -32 -150.5t-114 -134.5zM840 1456q145 0 280 -56.5t239 -160.5q102 -101 158.5 -238t56.5 -283q0 -147 -56.5 -282t-162.5 -240
q-105 -105 -239 -159.5t-283 -54.5q-146 0 -278 55.5t-238 160.5q-106 104 -161.5 237.5t-55.5 282.5q0 148 55.5 283t159.5 238q102 104 238.5 160.5t286.5 56.5zM357 1197q-95 -96 -146 -219.5t-51 -259.5q0 -137 51 -259t148 -219q98 -96 219 -147t256 -51
q137 0 259.5 50.5t219.5 145.5q97 98 149 221.5t52 258.5q0 134 -52 259.5t-145 219.5q-96 96 -220 147.5t-258 51.5q-137 0 -262 -51.5t-220 -147.5z" />
    <glyph glyph-name="macron" unicode="&#xaf;" horiz-adv-x="670" 
 />
    <glyph glyph-name="degree" unicode="&#xb0;" horiz-adv-x="674" 
d="M339 1372q-86 0 -147.5 -61t-61.5 -148t61 -147t148 -60t147 60t60 147t-60.5 148t-146.5 61zM339 1442q115 0 196 -81.5t81 -196.5q0 -114 -82 -196t-197 -82q-117 0 -197 81t-80 197t81.5 197t197.5 81z" />
    <glyph glyph-name="plusminus" unicode="&#xb1;" 
 />
    <glyph glyph-name="uni00B2" unicode="&#xb2;" 
 />
    <glyph glyph-name="uni00B3" unicode="&#xb3;" 
 />
    <glyph glyph-name="acute" unicode="&#xb4;" horiz-adv-x="1024" 
d="M607 1375q35 35 55.5 47t40.5 12q33 0 53.5 -20t20.5 -51q0 -22 -15.5 -42t-46.5 -40l-330 -203h-69z" />
    <glyph glyph-name="mu" unicode="&#xb5;" horiz-adv-x="1180" 
 />
    <glyph glyph-name="paragraph" unicode="&#xb6;" horiz-adv-x="1024" 
d="M929 1435v-70h-127v-1365h-82v1365h-166v-1365h-84v738q-174 8 -275.5 102.5t-101.5 245.5q0 157 107.5 253t285.5 96h443z" />
    <glyph glyph-name="periodcentered" unicode="&#xb7;" horiz-adv-x="508" 
d="M145 740l82 84q15 14 29 14q13 0 31 -16l80 -86q12 -16 12 -29q0 -15 -14 -31l-80 -88q-20 -20 -29 -20q-16 0 -29 14l-88 101q-10 13 -10 26q0 15 16 31z" />
    <glyph glyph-name="periodcentered" unicode="&#x2219;" horiz-adv-x="508" 
d="M145 740l82 84q15 14 29 14q13 0 31 -16l80 -86q12 -16 12 -29q0 -15 -14 -31l-80 -88q-20 -20 -29 -20q-16 0 -29 14l-88 101q-10 13 -10 26q0 15 16 31z" />
    <glyph glyph-name="cedilla" unicode="&#xb8;" horiz-adv-x="1024" 
d="M360 -290q85 -52 152 -52q66 0 94.5 21.5t28.5 66.5t-49 64q-40 16 -102 16q-16 0 -34 -2l48 176h63l-37 -104q32 4 62 5q86 0 134 -40.5t48 -113.5q0 -76 -58.5 -120.5t-160.5 -44.5q-109 0 -189 32v96z" />
    <glyph glyph-name="uni00B9" unicode="&#xb9;" 
 />
    <glyph glyph-name="ordmasculine" unicode="&#xba;" horiz-adv-x="718" 
 />
    <glyph glyph-name="guillemotright" unicode="&#xbb;" horiz-adv-x="944" 
d="M115 176h-14v37l205 266l-205 266v37h14l342 -303zM428 176h-14v37l205 266l-205 266v37h14l342 -303z" />
    <glyph glyph-name="onequarter" unicode="&#xbc;" horiz-adv-x="1708" 
 />
    <glyph glyph-name="onehalf" unicode="&#xbd;" horiz-adv-x="1964" 
 />
    <glyph glyph-name="threequarters" unicode="&#xbe;" horiz-adv-x="1708" 
 />
    <glyph glyph-name="questiondown" unicode="&#xbf;" horiz-adv-x="748" 
 />
    <glyph glyph-name="Agrave" unicode="&#xc0;" horiz-adv-x="1540" 
 />
    <glyph glyph-name="Aacute" unicode="&#xc1;" horiz-adv-x="1540" 
 />
    <glyph glyph-name="Acircumflex" unicode="&#xc2;" horiz-adv-x="1540" 
 />
    <glyph glyph-name="Atilde" unicode="&#xc3;" horiz-adv-x="1540" 
 />
    <glyph glyph-name="Adieresis" unicode="&#xc4;" horiz-adv-x="1540" 
 />
    <glyph glyph-name="Aring" unicode="&#xc5;" horiz-adv-x="1540" 
 />
    <glyph glyph-name="AE" unicode="&#xc6;" horiz-adv-x="2118" 
 />
    <glyph glyph-name="Ccedilla" unicode="&#xc7;" horiz-adv-x="1399" 
 />
    <glyph glyph-name="Egrave" unicode="&#xc8;" horiz-adv-x="1151" 
 />
    <glyph glyph-name="Eacute" unicode="&#xc9;" horiz-adv-x="1151" 
 />
    <glyph glyph-name="Ecircumflex" unicode="&#xca;" horiz-adv-x="1151" 
 />
    <glyph glyph-name="Edieresis" unicode="&#xcb;" horiz-adv-x="1151" 
 />
    <glyph glyph-name="Igrave" unicode="&#xcc;" horiz-adv-x="657" 
 />
    <glyph glyph-name="Iacute" unicode="&#xcd;" horiz-adv-x="657" 
 />
    <glyph glyph-name="Icircumflex" unicode="&#xce;" horiz-adv-x="657" 
 />
    <glyph glyph-name="Idieresis" unicode="&#xcf;" horiz-adv-x="657" 
 />
    <glyph glyph-name="Eth" unicode="&#xd0;" horiz-adv-x="1518" 
 />
    <glyph glyph-name="Ntilde" unicode="&#xd1;" horiz-adv-x="1554" 
 />
    <glyph glyph-name="Ograve" unicode="&#xd2;" horiz-adv-x="1614" 
 />
    <glyph glyph-name="Oacute" unicode="&#xd3;" horiz-adv-x="1614" 
 />
    <glyph glyph-name="Ocircumflex" unicode="&#xd4;" horiz-adv-x="1614" 
 />
    <glyph glyph-name="Otilde" unicode="&#xd5;" horiz-adv-x="1614" 
 />
    <glyph glyph-name="Odieresis" unicode="&#xd6;" horiz-adv-x="1614" 
 />
    <glyph glyph-name="multiply" unicode="&#xd7;" 
d="M507 618l-247 -247l-99 99l247 247l-247 248l99 98l247 -247l248 247l98 -99l-247 -247l247 -247l-99 -99z" />
    <glyph glyph-name="Oslash" unicode="&#xd8;" horiz-adv-x="1614" 
 />
    <glyph glyph-name="Ugrave" unicode="&#xd9;" horiz-adv-x="1501" 
 />
    <glyph glyph-name="Uacute" unicode="&#xda;" horiz-adv-x="1501" 
 />
    <glyph glyph-name="Ucircumflex" unicode="&#xdb;" horiz-adv-x="1501" 
 />
    <glyph glyph-name="Udieresis" unicode="&#xdc;" horiz-adv-x="1501" 
 />
    <glyph glyph-name="Yacute" unicode="&#xdd;" horiz-adv-x="1233" 
 />
    <glyph glyph-name="Thorn" unicode="&#xde;" horiz-adv-x="1120" 
 />
    <glyph glyph-name="germandbls" unicode="&#xdf;" horiz-adv-x="1251" 
 />
    <glyph glyph-name="agrave" unicode="&#xe0;" horiz-adv-x="922" 
 />
    <glyph glyph-name="aacute" unicode="&#xe1;" horiz-adv-x="922" 
 />
    <glyph glyph-name="acircumflex" unicode="&#xe2;" horiz-adv-x="922" 
 />
    <glyph glyph-name="atilde" unicode="&#xe3;" horiz-adv-x="922" 
 />
    <glyph glyph-name="adieresis" unicode="&#xe4;" horiz-adv-x="922" 
 />
    <glyph glyph-name="aring" unicode="&#xe5;" horiz-adv-x="922" 
 />
    <glyph glyph-name="ae" unicode="&#xe6;" horiz-adv-x="1454" 
 />
    <glyph glyph-name="ccedilla" unicode="&#xe7;" horiz-adv-x="905" 
 />
    <glyph glyph-name="egrave" unicode="&#xe8;" horiz-adv-x="909" 
 />
    <glyph glyph-name="eacute" unicode="&#xe9;" horiz-adv-x="909" 
 />
    <glyph glyph-name="ecircumflex" unicode="&#xea;" horiz-adv-x="909" 
 />
    <glyph glyph-name="edieresis" unicode="&#xeb;" horiz-adv-x="909" 
 />
    <glyph glyph-name="igrave" unicode="&#xec;" horiz-adv-x="514" 
 />
    <glyph glyph-name="iacute" unicode="&#xed;" horiz-adv-x="514" 
 />
    <glyph glyph-name="icircumflex" unicode="&#xee;" horiz-adv-x="514" 
 />
    <glyph glyph-name="idieresis" unicode="&#xef;" horiz-adv-x="514" 
 />
    <glyph glyph-name="eth" unicode="&#xf0;" horiz-adv-x="1139" 
 />
    <glyph glyph-name="ntilde" unicode="&#xf1;" horiz-adv-x="1108" 
 />
    <glyph glyph-name="ograve" unicode="&#xf2;" horiz-adv-x="1010" 
 />
    <glyph glyph-name="oacute" unicode="&#xf3;" horiz-adv-x="1010" 
 />
    <glyph glyph-name="ocircumflex" unicode="&#xf4;" horiz-adv-x="1010" 
 />
    <glyph glyph-name="otilde" unicode="&#xf5;" horiz-adv-x="1010" 
 />
    <glyph glyph-name="odieresis" unicode="&#xf6;" horiz-adv-x="1010" 
 />
    <glyph glyph-name="divide" unicode="&#xf7;" 
d="M87 647v140h839l1 -1v-139h-840zM398 408l82 84q15 14 29 14q13 0 31 -16l80 -86q12 -16 12 -29q0 -15 -14 -31l-80 -88q-20 -20 -29 -20q-16 0 -29 14l-88 101q-10 13 -10 26q0 15 16 31zM398 1101l82 84q15 14 29 14q13 0 31 -16l80 -86q12 -16 12 -29q0 -15 -14 -31
l-80 -88q-20 -20 -29 -20q-16 0 -29 14l-88 101q-10 13 -10 26q0 15 16 31z" />
    <glyph glyph-name="oslash" unicode="&#xf8;" horiz-adv-x="1010" 
 />
    <glyph glyph-name="ugrave" unicode="&#xf9;" horiz-adv-x="1059" 
 />
    <glyph glyph-name="uacute" unicode="&#xfa;" horiz-adv-x="1059" 
 />
    <glyph glyph-name="ucircumflex" unicode="&#xfb;" horiz-adv-x="1059" 
 />
    <glyph glyph-name="udieresis" unicode="&#xfc;" horiz-adv-x="1059" 
 />
    <glyph glyph-name="yacute" unicode="&#xfd;" horiz-adv-x="868" 
 />
    <glyph glyph-name="thorn" unicode="&#xfe;" horiz-adv-x="1010" 
 />
    <glyph glyph-name="ydieresis" unicode="&#xff;" horiz-adv-x="868" 
 />
    <glyph glyph-name="dotlessi" unicode="&#x131;" horiz-adv-x="514" 
d="M328 223q0 -173 100 -173h46v-50h-442v50h46q100 0 100 173v432q0 77 -111 77h-48v44q222 69 261 182h48v-735z" />
    <glyph glyph-name="circumflex" unicode="&#x2c6;" horiz-adv-x="1024" 
d="M221 1079l232 355h118l232 -355h-58l-233 216l-233 -216h-58z" />
    <glyph glyph-name="caron" unicode="&#x2c7;" horiz-adv-x="1024" 
d="M221 1434h58l233 -214l233 214h58l-232 -356h-118z" />
    <glyph glyph-name="uni02C9" unicode="&#x2c9;" horiz-adv-x="1024" 
d="M254 1195v125h516v-125h-516z" />
    <glyph glyph-name="breve" unicode="&#x2d8;" horiz-adv-x="1024" 
d="M219 1349h51q17 -73 75 -107t167 -34t166 33.5t74 107.5h51q-20 -133 -94 -201.5t-197 -68.5q-122 0 -197 69t-96 201z" />
    <glyph glyph-name="dotaccent" unicode="&#x2d9;" horiz-adv-x="1024" 
d="M422 1289l69 72q6 6 13 9t14 3q6 0 12.5 -3t12.5 -9l71 -76q5 -4 7 -10t2 -14q-1 -9 -3 -15t-8 -12l-71 -76q-12 -11 -16 -13.5t-7 -2.5q-10 0 -16.5 2.5t-10.5 8.5l-75 87q-4 4 -6 9.5t-2 13.5q0 6 3 12.5t11 13.5z" />
    <glyph glyph-name="ring" unicode="&#x2da;" horiz-adv-x="1024" 
d="M411 1257q0 -42 29 -71t71 -29t71 29t29 71q0 40 -29.5 69.5t-70.5 29.5t-70.5 -29.5t-29.5 -69.5zM335 1257q0 75 51 126t125 51q76 0 127.5 -51.5t51.5 -125.5q0 -75 -51.5 -126.5t-127.5 -51.5q-74 0 -125 51.5t-51 126.5z" />
    <glyph glyph-name="ogonek" unicode="&#x2db;" horiz-adv-x="1024" 
d="M640 0q-71 -62 -110.5 -119.5t-39.5 -112.5q0 -47 27 -75t73 -28q40 0 69.5 15.5t49.5 48.5l28 -16q-36 -63 -90.5 -97t-119.5 -34q-70 0 -114 35.5t-44 90.5q0 76 60.5 156.5t161.5 135.5h49z" />
    <glyph glyph-name="tilde" unicode="&#x2dc;" horiz-adv-x="1024" 
d="M808 1382q-20 -103 -68.5 -154t-126.5 -51h-4q-50 0 -113 23q-66 24 -114 24q-39 0 -60.5 -20.5t-33.5 -71.5h-54q19 106 68 158.5t129 52.5q46 -1 113 -24q64 -23 112 -23h4q36 0 58 20t36 66h54z" />
    <glyph glyph-name="hungarumlaut" unicode="&#x2dd;" horiz-adv-x="1024" 
d="M217 1079l144 273q24 44 45.5 63t46.5 19q28 0 48 -20t20 -47q0 -16 -10.5 -35t-30.5 -41l-205 -212h-58zM502 1079l144 273q24 44 45.5 63t46.5 19q28 0 48 -20t20 -47q0 -16 -10.5 -35t-30.5 -41l-205 -212h-58z" />
    <glyph glyph-name="endash" unicode="&#x2013;" horiz-adv-x="1108" 
d="M56 419v120h996v-120h-996z" />
    <glyph glyph-name="emdash" unicode="&#x2014;" horiz-adv-x="2048" 
d="M0 419v120h2048v-120h-2048z" />
    <glyph glyph-name="quoteleft" unicode="&#x2018;" horiz-adv-x="557" 
d="M218 1180h-170h-18v217q0 103 93 170v-10q-46 -56 -46 -151l19 -19h122h19v-207h-19z" />
    <glyph glyph-name="quoteright" unicode="&#x2019;" horiz-adv-x="290" 
d="M49 1567h170h18v-218q0 -102 -93 -169v9q46 57 46 151l-19 20h-122h-19v207h19z" />
    <glyph glyph-name="quotesinglbase" unicode="&#x201a;" horiz-adv-x="290" 
d="M49 197h170h18v-218q0 -102 -93 -169v9q46 57 46 151l-19 20h-122h-19v207h19z" />
    <glyph glyph-name="quotedblleft" unicode="&#x201c;" horiz-adv-x="910" 
d="M228 1180h-170h-18v217q0 103 93 170v-10q-46 -56 -46 -151l19 -19h122h19v-207h-19zM468 1180h-170h-18v217q0 103 93 170v-10q-46 -56 -46 -151l19 -19h122h19v-207h-19z" />
    <glyph glyph-name="quotedblright" unicode="&#x201d;" horiz-adv-x="535" 
d="M299 1567h170h18v-218q0 -102 -93 -169v9q46 57 46 151l-19 20h-122h-19v207h19zM59 1567h170h18v-218q0 -102 -93 -169v9q46 57 46 151l-19 20h-122h-19v207h19z" />
    <glyph glyph-name="quotedblbase" unicode="&#x201e;" horiz-adv-x="910" 
d="M299 197h170h18v-218q0 -102 -93 -169v9q46 57 46 151l-19 20h-122h-19v207h19zM59 197h170h18v-218q0 -102 -93 -169v9q46 57 46 151l-19 20h-122h-19v207h19z" />
    <glyph glyph-name="dagger" unicode="&#x2020;" 
d="M486 1022q-8 97 -54 178q-57 101 -57 129q0 49 36 78.5t96 29.5q57 0 94.5 -27.5t37.5 -71.5q0 -32 -55 -137q-46 -85 -55 -179q96 8 177 54q101 57 129 57q49 0 79 -36t30 -96q0 -57 -27.5 -94.5t-72.5 -37.5q-32 0 -136 55q-85 46 -179 57q8 -176 110 -277
q-106 -460 -112 -974h-38q-6 514 -114 974q102 101 111 277q-96 -10 -178 -55q-101 -57 -129 -57q-49 0 -78.5 36t-29.5 96q0 57 27.5 94.5t71.5 37.5q32 0 137 -56q85 -46 179 -55z" />
    <glyph glyph-name="daggerdbl" unicode="&#x2021;" 
d="M528 186q94 11 179 57q104 55 136 55q45 0 72.5 -37.5t27.5 -94.5q0 -60 -30 -96t-79 -36q-28 0 -129 57q-81 46 -177 54q9 -94 55 -179q55 -105 55 -137q0 -44 -37.5 -71.5t-94.5 -27.5q-60 0 -96 29.5t-36 78.5q0 28 57 129q46 81 54 178q-94 -9 -179 -55
q-105 -56 -137 -56q-44 0 -71.5 37.5t-27.5 94.5q0 60 29.5 96t78.5 36q28 0 129 -57q82 -45 178 -55q-9 226 -111 398q102 171 111 397q-96 -10 -178 -55q-101 -57 -129 -57q-49 0 -78.5 36t-29.5 96q0 57 27.5 94.5t71.5 37.5q32 0 137 -56q85 -46 179 -55q-8 97 -54 178
q-57 101 -57 129q0 49 36 78.5t96 29.5q57 0 94.5 -27.5t37.5 -71.5q0 -32 -55 -137q-46 -85 -55 -179q96 8 177 54q101 57 129 57q49 0 79 -36t30 -96q0 -57 -27.5 -94.5t-72.5 -37.5q-32 0 -136 55q-85 46 -179 57q8 -226 110 -397q-102 -172 -110 -398z" />
    <glyph glyph-name="bullet" unicode="&#x2022;" horiz-adv-x="706" 
d="M96 1008h502h56v-614h-56h-502h-56v614h56z" />
    <glyph glyph-name="ellipsis" unicode="&#x2026;" horiz-adv-x="1003" 
d="M49 198h170h19v-208h-19h-170h-19v208h19zM419 198h170h19v-208h-19h-170h-19v208h19zM779 198h170h19v-208h-19h-170h-19v208h19z" />
    <glyph glyph-name="guilsinglleft" unicode="&#x2039;" horiz-adv-x="631" 
d="M174 479l342 303h14v-37l-205 -266l205 -266v-37h-14z" />
    <glyph glyph-name="guilsinglright" unicode="&#x203a;" horiz-adv-x="631" 
d="M115 176h-14v37l205 266l-205 266v37h14l342 -303z" />
    <glyph glyph-name="fraction" unicode="&#x2044;" horiz-adv-x="342" 
d="M-342 -29l940 1461h84l-938 -1461h-86z" />
    <glyph glyph-name="fraction" unicode="&#x2215;" horiz-adv-x="342" 
d="M-342 -29l940 1461h84l-938 -1461h-86z" />
    <glyph glyph-name="franc" unicode="&#x20a3;" 
d="M247 357h-194v60h194v732q0 235 -103 235h-96v50h915l103 -231h-49q-59 182 -190 182l-316 -1q-102 0 -102 -235v-352h361q100 0 100 63v58h50v-342h-50v60q0 62 -100 62h-361v-281h194v-60h-194v-72q0 -235 102 -235h97v-50h-560v50h96q103 0 103 235v72z" />
    <glyph glyph-name="lira" unicode="&#x20a4;" 
d="M748 1347q-72 31 -160 31h-2q-100 0 -190 -101q-84 -93 -84 -241q0 -15 1 -30q0 -106 33 -213h380v-60h-360q12 -30 26 -60h352v-60h-321q35 -63 35 -138q0 -161 -162 -375h402q130 0 189 132l49 -1l-103 -231h-719l1 50q187 238 187 418q0 77 -34 143l-2 2h-172v60h143
l-26 60h-135v60h113q-36 107 -36 193q0 226 123.5 347t310.5 121q75 0 185.5 -14t110.5 -34v-161h-58q-5 61 -77 102z" />
    <glyph glyph-name="peseta" unicode="&#x20a7;" horiz-adv-x="2028" 
d="M409 1384v-662q3 -9 7 -17q41 -102 108 -153q57 -44 116 -44q10 0 19 1q68 8 127 75t87 177q22 87 22 179q0 24 -1 47q-7 116 -49.5 218.5t-108.5 144.5q-56 35 -112 35q-10 0 -21 -1h-194zM1496 908h-179v-685q0 -81 34 -119q28 -31 81 -37l-71 192l49 1
q55 -130 114 -174q57 -44 127 -44h7q92 0 151 52q59 53 59 136q0 102 -259 226q-101 52 -144 112t-43 145q0 121 73 194zM1039 910q-7 -101 -48 -194q-50 -114 -141 -177.5t-190 -63.5q-100 0 -191 64q-33 22 -60 51v-305q0 -235 102 -235h97v-50h-560v50h96q103 0 103 235
v864q0 235 -103 235h-96v50h618q92 -2 181 -62q91 -62 143 -177q50 -113 51 -237h10q216 0 216 355h50v-355h259q42 19 110 20h2q54 0 133.5 -13.5t79.5 -33.5v-159h-42q-4 66 -65.5 108t-133.5 42q-64 0 -102.5 -36.5t-38.5 -96.5q0 -108 235 -220q122 -55 167.5 -117.5
t45.5 -153.5q0 -140 -83 -231q-102 -84 -228 -86q-58 0 -105 11q-28 6 -56 6q-18 0 -36 -3q-28 -5 -59 -5q-124 0 -173.5 57t-57.5 176h-1v687h-129z" />
    <glyph glyph-name="Euro" unicode="&#x20ac;" 
d="M140 372q-62 135 -76 281h-108l17 60h87v29q0 16 1 31h-71l17 60h58q14 145 76 281q81 178 226 274t298 96q43 0 87 -8q40 -10 82 -29q8 -6 16 -6q20 0 34 45h41l84 -281l-40 -1q-49 134 -138 178q-43 22 -81 32v3q-50 16 -101 16q-17 0 -34 -2q-120 -12 -226 -113.5
t-157 -273.5q-32 -104 -39 -211h706l-17 -60h-692q0 -30 2 -60h674l-17 -60h-652q17 -158 83 -298q74 -157 193 -236q102 -68 216 -69q186 3 256 91q74 91 74 185h48v-143q0 -70 -111 -127q-105 -54 -267 -56q-181 0 -325.5 98t-223.5 274z" />
    <glyph glyph-name="afii61352" unicode="&#x2116;" horiz-adv-x="2271" 
 />
    <glyph glyph-name="trademark" unicode="&#x2122;" horiz-adv-x="1497" 
 />
    <glyph glyph-name="partialdiff" unicode="&#x2202;" 
d="M232 537q0 -41 5 -79q14 -122 61.5 -230t118.5 -165q64 -53 128 -53q6 0 13 1q70 5 127.5 70.5t80.5 179.5q16 73 16 149q0 42 -5 85q-14 122 -62.5 231.5t-119.5 165.5q-65 50 -128 50h-11q-68 -5 -126 -69.5t-82 -178.5q-16 -84 -16 -157zM937 477q0 -132 -56.5 -251
t-159 -185t-214.5 -66t-214.5 66t-159 185t-56.5 251q0 131 58 251t161 185t211 65q109 0 212 -65q29 -18 54 -41q-84 235 -233.5 377t-326.5 155v55q306 0 515 -285t209 -697z" />
    <glyph glyph-name="Delta" unicode="&#x2206;" horiz-adv-x="1081" 
d="M514 1195l-406 -1072h801zM547 1434l526 -1434h-1067z" />
    <glyph glyph-name="product" unicode="&#x220f;" horiz-adv-x="1515" 
d="M511 1384q-102 0 -102 -235v-1281q0 -235 102 -235h97v-51h-560v51h96q103 0 103 235v1281q0 235 -103 235h-96v50h1419v-50h-97q-102 0 -102 -235v-1281q0 -235 102 -235h97v-50h-560v50h96q103 0 103 235v1281q0 235 -103 235h-492z" />
    <glyph glyph-name="summation" unicode="&#x2211;" horiz-adv-x="1206" 
d="M1059 548l-788 -914h635q130 0 189 182h49l-103 -232h-921v50q62 0 106 53l663 781l-663 859q-44 57 -106 57v50h921l103 -232h-49q-59 182 -189 182h-485z" />
    <glyph glyph-name="minus" unicode="&#x2212;" 
d="M87 647v140h839l1 -1v-139h-840z" />
    <glyph glyph-name="radical" unicode="&#x221a;" 
d="M181 0l-164 359l74 35l85 -185l728 1470h150v-60h-72z" />
    <glyph glyph-name="infinity" unicode="&#x221e;" 
d="M439 755q-15 103 -74 133q-46 22 -84 22q-12 0 -23 -2q-49 -10 -92.5 -44.5t-65.5 -84.5q-20 -46 -20 -90v-8q2 -48 27.5 -89t71.5 -58q29 -11 61 -11q16 0 33 3q47 10 90.5 43.5t75.5 185.5zM466 687q12 -96 94 -153q69 -48 123 -48q11 0 21 2q62 12 117.5 52t84.5 101
q26 54 26 108v11q-2 60 -35.5 108.5t-91.5 68.5q-37 13 -76 13q-22 0 -44 -4q-67 -9 -127 -62t-92 -197zM450 827q9 35 21 69q34 88 95 137t128 49t128 -48t95 -135t34 -182t-34 -182t-95 -135t-128 -48t-128 49t-95 136q-12 35 -21 70q-5 -21 -12 -41q-27 -73 -74 -113
t-99 -40t-100 41t-73.5 113.5t-25.5 149.5q0 76 25.5 149t73.5 114t100 41t99 -40t74 -112q7 -21 12 -42z" />
    <glyph glyph-name="integral" unicode="&#x222b;" horiz-adv-x="665" 
d="M-12 -281q-60 0 -60 29v159h36q1 -43 34.5 -64.5t63.5 -21.5h1q82 0 115 162q32 162 40 316l70 734l8 62q27 238 135 429.5t234 191.5q60 0 60 -29v-159h-36q-1 43 -35 64.5t-63 21.5q-71 0 -116 -155.5t-49 -363.5l-73 -767q-20 -231 -130.5 -420t-234.5 -189z" />
    <glyph glyph-name="approxequal" unicode="&#x2248;" 
d="M923 1053v-156q-63 -72 -122 -97.5t-116 -25.5q-60 0 -177.5 48.5t-176.5 48.5q-51 0 -107.5 -28t-129.5 -112v156q64 73 123 99t114 26q64 0 181.5 -49.5t172.5 -49.5q52 0 108.5 28t129.5 112zM923 705v-156q-63 -72 -122 -97.5t-116 -25.5q-60 0 -177.5 48.5
t-176.5 48.5q-51 0 -107.5 -28t-129.5 -112v156q64 73 123 99t114 26q64 0 181.5 -49.5t172.5 -49.5q52 0 108.5 28t129.5 112z" />
    <glyph glyph-name="lessequal" unicode="&#x2264;" 
d="M927 1074l-625 -359l625 -355v-167l-840 481v83l840 484v-167zM87 1v140h839l1 -1v-139h-840z" />
    <glyph glyph-name="greaterequal" unicode="&#x2265;" 
d="M87 1241l840 -484v-83l-840 -481v167l625 355l-625 359v167zM87 2v140h839l1 -1v-139h-840z" />
    <glyph glyph-name="uniF001" unicode="&#xf001;" horiz-adv-x="1073" 
 />
    <glyph glyph-name="uniF001" unicode="&#xfb01;" horiz-adv-x="1073" 
 />
    <glyph glyph-name="uniF002" unicode="&#xf002;" horiz-adv-x="1081" 
 />
    <glyph glyph-name="uniF002" unicode="&#xfb02;" horiz-adv-x="1081" 
 />
  </font>
</defs>
</svg>
